<?xml version="1.0" standalone="no"?>
<!DOCTYPE svg PUBLIC "-//W3C//DTD SVG 20010904//EN"
 "http://www.w3.org/TR/2001/REC-SVG-20010904/DTD/svg10.dtd">
<svg version="1.0" xmlns="http://www.w3.org/2000/svg"
 width="512.000000pt" height="512.000000pt" viewBox="0 0 512.000000 512.000000"
 preserveAspectRatio="xMidYMid meet">

<g transform="translate(0.000000,512.000000) scale(0.100000,-0.100000)"
fill="#000000" stroke="none">
<path d="M590 4953 c-16 -3 -97 -76 -221 -201 -280 -281 -280 -263 0 -544 167
-168 202 -198 233 -203 61 -11 108 3 149 44 66 66 65 153 -3 227 l-40 43 475
3 c462 3 476 4 503 24 53 39 69 71 69 134 0 63 -16 95 -69 134 -27 20 -41 21
-503 24 l-475 3 35 38 c120 133 24 306 -153 274z"/>
<path d="M4410 4938 c-34 -17 -51 -35 -69 -71 -33 -66 -24 -119 30 -181 l40
-45 -475 -3 c-461 -3 -475 -4 -502 -24 -53 -39 -69 -71 -69 -134 0 -63 16 -95
69 -134 27 -20 42 -21 502 -26 l475 -5 -32 -30 c-86 -81 -77 -197 20 -262 39
-26 96 -30 144 -9 18 8 114 96 214 197 270 274 270 265 15 522 -97 98 -189
187 -204 198 -43 31 -105 34 -158 7z"/>
<path d="M2441 4624 c-169 -45 -301 -180 -346 -351 -13 -48 -15 -179 -15 -844
l0 -787 -87 44 c-112 56 -184 74 -300 74 -122 0 -180 -13 -288 -65 -150 -73
-221 -149 -251 -267 -19 -73 -13 -130 22 -208 21 -47 86 -117 430 -461 l405
-405 -36 -59 c-19 -33 -40 -77 -46 -98 -6 -24 -9 -179 -7 -420 3 -373 4 -383
26 -427 35 -72 75 -114 144 -151 l63 -34 1045 0 1045 0 63 34 c70 38 100 69
140 145 l27 51 0 400 0 400 -27 57 c-15 32 -46 76 -70 99 l-44 41 53 441 c50
409 53 449 44 538 -32 297 -198 532 -463 653 -40 18 -265 97 -500 176 l-428
142 0 432 c0 474 -2 490 -61 608 -96 189 -335 297 -538 242z m212 -337 c68
-52 67 -40 67 -593 0 -479 1 -499 20 -538 11 -23 30 -48 43 -57 12 -8 254 -93
537 -188 283 -96 535 -185 560 -199 65 -38 151 -129 183 -196 16 -32 35 -91
43 -130 15 -70 14 -84 -35 -500 -28 -235 -51 -431 -51 -437 0 -5 -312 -9 -823
-9 l-822 0 -459 459 -458 458 31 22 c91 65 206 83 311 47 47 -17 75 -39 195
-156 160 -157 187 -174 257 -168 52 5 89 27 122 72 21 27 21 37 26 1034 4 737
8 1012 17 1027 16 28 54 62 83 74 42 18 115 7 153 -22z m1507 -3487 l0 -320
-960 0 -960 0 0 320 0 320 960 0 960 0 0 -320z"/>
</g>
</svg>
